<svg xmlns="http://www.w3.org/2000/svg" width="16" height="16" fill="none"><rect width="16" height="16" fill="#D3D3D3" rx="3"/><path fill="#333" d="M11.111 12H4.89C4.398 12 4 11.642 4 11.2V5.6c0-.442.398-.8.889-.8h.889V4h.889v.8h2.666V4h.89v.8h.888c.491 0 .889.358.889.8v5.6c0 .442-.398.8-.889.8ZM4.89 7.2v4h6.222v-4H4.89Zm0-1.6v.8h6.222v-.8H4.89Zm5.333 4.8h-.889v-.8h.89v.8Zm-1.778 0h-.888v-.8h.888v.8Zm-1.777 0h-.89v-.8h.89v.8Zm3.555-1.6h-.889V8h.89v.8Zm-1.778 0h-.888V8h.888v.8Zm-1.777 0h-.89V8h.89v.8Z"/></svg>