<svg xmlns="http://www.w3.org/2000/svg" width="368.649" height="84.9" viewBox="-92.868 -20.882 368.649 84.9"><g style="fill:#5b6871;fill-opacity:1"><path d="m-12.773 9.968-26.045-26.045a16.296 16.296 0 0 0-11.6-4.805 16.294 16.294 0 0 0-11.6 4.805L-88.062 9.968a16.291 16.291 0 0 0-4.806 11.6c0 4.383 1.706 8.5 4.806 11.6l26.044 26.045a16.297 16.297 0 0 0 11.6 4.805c4.383 0 8.502-1.707 11.6-4.805l26.045-26.045a16.297 16.297 0 0 0 4.805-11.6 16.305 16.305 0 0 0-4.805-11.6Zm-2.383 20.817L-41.201 56.83a12.958 12.958 0 0 1-9.217 3.818 12.953 12.953 0 0 1-9.217-3.818l-20.048-20.049h17.242l5.74 9.945h12.566l6.281-10.881-6.281-10.881h-12.566l-5.74 9.943h-19.115l-4.123-4.123a12.948 12.948 0 0 1-3.819-9.216 12.95 12.95 0 0 1 3.818-9.217l26.044-26.044a12.946 12.946 0 0 1 9.217-3.817c3.483 0 6.754 1.355 9.217 3.817l20.423 20.421h-17.616l-5.74-9.944h-12.566l-6.281 10.881 6.281 10.88h12.566l5.74-9.943h19.488l3.75 3.75a12.951 12.951 0 0 1 3.818 9.217 12.953 12.953 0 0 1-3.817 9.216Zm-43.934 5.06 4.336-7.51h8.672l4.336 7.51-4.336 7.51h-8.672l-4.336-7.51Zm17.344-28.181-4.336 7.51h-8.672l-4.336-7.51 4.336-7.51h8.672l4.336 7.51Z" style="fill:#5b6871;fill-opacity:1"/><path d="m-38.182 13.247-4.181 7.243h-16.109l-4.182-7.243h-9.607l-4.804 8.321 4.804 8.32h9.607l4.182-7.242h16.109l4.181 7.242h9.608l4.802-8.32-4.802-8.321zM24.922 1.406c-2.865 0-5.52.469-7.969 1.406-2.396.938-4.479 2.24-6.25 3.906-1.719 1.563-3.073 3.542-4.062 5.938-.834 2.031-1.302 4.245-1.407 6.64v2.344h6.875v-2.344c.104-1.77.39-3.203.86-4.296a13.807 13.807 0 0 1 2.578-4.063c1.302-1.198 2.656-2.083 4.062-2.656 1.615-.625 3.386-.938 5.313-.938h9.844V1.406h-9.844zm2.969 17.578v1.484h.078c-.104 1.667-.416 3.203-.937 4.61-.677 1.614-1.537 2.942-2.578 3.984a11.951 11.951 0 0 1-4.063 2.656c-1.614.625-3.385.938-5.312.938H5.235v5.937h9.844c2.864 0 5.52-.468 7.968-1.406 2.396-.937 4.48-2.24 6.25-3.906 1.823-1.823 3.177-3.802 4.063-5.938.937-2.083 1.406-4.375 1.406-6.875v-1.484h-6.875zM63.281 7.5h11.797V1.406H44.922V7.5h18.359zm-6.562 6.094h6.563v25h-6.563v-25zm53.984 25h7.031L104.14 1.328h-7.11l7.892 22.266zm-28.75 0h6.875l8.125-19.844-3.36-8.907zm45.078-37.188h6.407v31.25h19.53v5.938h-25.937V1.404zm57.891 0c-2.865 0-5.52.469-7.969 1.406-2.396.938-4.479 2.24-6.25 3.906-1.719 1.563-3.073 3.542-4.062 5.938-.834 2.031-1.302 4.245-1.407 6.64v2.344h6.875v-2.344c.104-1.77.39-3.203.86-4.296a13.807 13.807 0 0 1 2.578-4.063c1.302-1.198 2.656-2.083 4.062-2.656 1.615-.625 3.386-.938 5.313-.938h9.844V1.406h-9.844zm2.969 17.578v1.484h.078c-.104 1.667-.416 3.203-.937 4.61-.677 1.614-1.537 2.942-2.578 3.984a11.951 11.951 0 0 1-4.063 2.656c-1.614.625-3.385.938-5.312.938h-9.844v5.937h9.844c2.864 0 5.52-.468 7.968-1.406 2.396-.937 4.48-2.24 6.25-3.906 1.823-1.823 3.177-3.802 4.063-5.938.937-2.083 1.406-4.375 1.406-6.875v-1.484h-6.875zm18.203-17.578h27.813v5.937h-27.813V1.406zm0 31.25h27.734v5.938h-27.734v-5.938zm0-15.781h25.078v5.86h-25.078v-5.86zm69.687 21.719L265.703 24.53c1.354-.417 2.552-.912 3.594-1.485 1.146-.729 2.083-1.536 2.812-2.421.834-.99 1.433-2.058 1.797-3.204.469-1.25.703-2.656.703-4.218 0-1.823-.312-3.464-.937-4.922a10.442 10.442 0 0 0-2.735-3.672c-1.145-.99-2.604-1.771-4.375-2.344-1.823-.573-3.75-.86-5.781-.86h-16.563v5.938h16.016c2.448 0 4.349.521 5.703 1.563s2.031 2.604 2.031 4.687c0 1.927-.677 3.438-2.031 4.531-1.354 1.146-3.23 1.72-5.625 1.72h-16.094v18.75h6.484v-12.97h8.204l9.14 12.97h7.735z" style="fill:#5b6871;fill-opacity:1"/></g></svg>