<svg xmlns="http://www.w3.org/2000/svg" width="84.9" height="84.9" viewBox="-92.868 -20.882 84.9 84.9"><path d="m-12.773 9.968-26.045-26.045a16.296 16.296 0 0 0-11.6-4.805 16.294 16.294 0 0 0-11.6 4.805L-88.062 9.968a16.291 16.291 0 0 0-4.806 11.6c0 4.383 1.706 8.5 4.806 11.6l26.044 26.045a16.297 16.297 0 0 0 11.6 4.805c4.383 0 8.502-1.707 11.6-4.805l26.045-26.045a16.297 16.297 0 0 0 4.805-11.6 16.305 16.305 0 0 0-4.805-11.6zm-2.383 20.817L-41.201 56.83a12.958 12.958 0 0 1-9.217 3.818 12.953 12.953 0 0 1-9.217-3.818l-20.048-20.049h17.242l5.74 9.945h12.566l6.281-10.881-6.281-10.881h-12.566l-5.74 9.943h-19.115l-4.123-4.123a12.948 12.948 0 0 1-3.819-9.216 12.95 12.95 0 0 1 3.818-9.217l26.044-26.044a12.946 12.946 0 0 1 9.217-3.817c3.483 0 6.754 1.355 9.217 3.817l20.423 20.421h-17.616l-5.74-9.944h-12.566l-6.281 10.881 6.281 10.88h12.566l5.74-9.943h19.488l3.75 3.75a12.951 12.951 0 0 1 3.818 9.217 12.953 12.953 0 0 1-3.817 9.216zm-43.934 5.06 4.336-7.51h8.672l4.336 7.51-4.336 7.51h-8.672zm17.344-28.181-4.336 7.51h-8.672l-4.336-7.51 4.336-7.51h8.672z"/><path d="m-58.472 20.49-4.182-7.243h-9.607l-4.804 8.321 4.804 8.32h9.607l4.182-7.242h16.109l4.181 7.242h9.608l4.802-8.32-4.802-8.321h-9.608l-4.181 7.243z"/></svg>