<svg viewBox="-92.868 -20.882 368.649 84.9" width="368.649" height="84.9">
  <path d="M -12.773 9.968 L -38.818 -16.077 C -41.918 -19.176 -46.035 -20.882 -50.418 -20.882 C -54.8 -20.882 -58.92 -19.176 -62.018 -16.077 L -88.062 9.968 C -91.162 13.066 -92.868 17.186 -92.868 21.568 C -92.868 25.951 -91.162 30.068 -88.062 33.168 L -62.018 59.213 C -58.921 62.311 -54.8 64.018 -50.418 64.018 C -46.035 64.018 -41.916 62.311 -38.818 59.213 L -12.773 33.168 C -9.675 30.07 -7.968 25.951 -7.968 21.568 C -7.969 17.186 -9.676 13.065 -12.773 9.968 Z M -15.156 30.785 L -41.201 56.83 C -43.664 59.291 -46.938 60.648 -50.418 60.648 C -53.9 60.648 -57.173 59.291 -59.635 56.83 L -79.683 36.781 L -62.441 36.781 L -56.701 46.726 L -44.135 46.726 L -37.854 35.845 L -44.135 24.964 L -56.701 24.964 L -62.441 34.907 L -81.556 34.907 L -85.679 30.784 C -88.141 28.322 -89.498 25.05 -89.498 21.568 C -89.498 18.086 -88.142 14.813 -85.68 12.351 L -59.636 -13.693 C -57.174 -16.155 -53.902 -17.51 -50.419 -17.51 C -46.936 -17.51 -43.665 -16.155 -41.202 -13.693 L -20.779 6.728 L -38.395 6.728 L -44.135 -3.216 L -56.701 -3.216 L -62.982 7.665 L -56.701 18.545 L -44.135 18.545 L -38.395 8.602 L -18.907 8.602 L -15.157 12.352 C -12.696 14.814 -11.339 18.086 -11.339 21.569 C -11.338 25.048 -12.695 28.322 -15.156 30.785 Z M -59.09 35.845 L -54.754 28.335 L -46.082 28.335 L -41.746 35.845 L -46.082 43.355 L -54.754 43.355 L -59.09 35.845 Z M -41.746 7.664 L -46.082 15.174 L -54.754 15.174 L -59.09 7.664 L -54.754 0.154 L -46.082 0.154 L -41.746 7.664 Z"></path>
  <polygon points="-38.182 13.247 -42.363 20.49 -58.472 20.49 -62.654 13.247 -72.261 13.247 -77.065 21.568 -72.261 29.888 -62.654 29.888 -58.472 22.646 -42.363 22.646 -38.182 29.888 -28.574 29.888 -23.772 21.568 -28.574 13.247"></polygon>
</svg>