<svg viewBox="-92.868 -20.882 368.649 84.9" width="368.649" height="84.9">
  <path d="M -12.773 9.968 L -38.818 -16.077 C -41.918 -19.176 -46.035 -20.882 -50.418 -20.882 C -54.8 -20.882 -58.92 -19.176 -62.018 -16.077 L -88.062 9.968 C -91.162 13.066 -92.868 17.186 -92.868 21.568 C -92.868 25.951 -91.162 30.068 -88.062 33.168 L -62.018 59.213 C -58.921 62.311 -54.8 64.018 -50.418 64.018 C -46.035 64.018 -41.916 62.311 -38.818 59.213 L -12.773 33.168 C -9.675 30.07 -7.968 25.951 -7.968 21.568 C -7.969 17.186 -9.676 13.065 -12.773 9.968 Z M -15.156 30.785 L -41.201 56.83 C -43.664 59.291 -46.938 60.648 -50.418 60.648 C -53.9 60.648 -57.173 59.291 -59.635 56.83 L -79.683 36.781 L -62.441 36.781 L -56.701 46.726 L -44.135 46.726 L -37.854 35.845 L -44.135 24.964 L -56.701 24.964 L -62.441 34.907 L -81.556 34.907 L -85.679 30.784 C -88.141 28.322 -89.498 25.05 -89.498 21.568 C -89.498 18.086 -88.142 14.813 -85.68 12.351 L -59.636 -13.693 C -57.174 -16.155 -53.902 -17.51 -50.419 -17.51 C -46.936 -17.51 -43.665 -16.155 -41.202 -13.693 L -20.779 6.728 L -38.395 6.728 L -44.135 -3.216 L -56.701 -3.216 L -62.982 7.665 L -56.701 18.545 L -44.135 18.545 L -38.395 8.602 L -18.907 8.602 L -15.157 12.352 C -12.696 14.814 -11.339 18.086 -11.339 21.569 C -11.338 25.048 -12.695 28.322 -15.156 30.785 Z M -59.09 35.845 L -54.754 28.335 L -46.082 28.335 L -41.746 35.845 L -46.082 43.355 L -54.754 43.355 L -59.09 35.845 Z M -41.746 7.664 L -46.082 15.174 L -54.754 15.174 L -59.09 7.664 L -54.754 0.154 L -46.082 0.154 L -41.746 7.664 Z"></path>
  <polygon points="-38.182 13.247 -42.363 20.49 -58.472 20.49 -62.654 13.247 -72.261 13.247 -77.065 21.568 -72.261 29.888 -62.654 29.888 -58.472 22.646 -42.363 22.646 -38.182 29.888 -28.574 29.888 -23.772 21.568 -28.574 13.247"></polygon>
  <path d="M24.922 1.4059999999999988 c-2.8646 0 -5.5209 0.4686 -7.9688 1.4061 c-2.3959 0.9375 -4.4792 2.2396 -6.2501 3.9063 c-1.7188 1.5625 -3.0729 3.5416 -4.0625 5.9375 c-0.83336 2.0313 -1.3021 4.2448 -1.4063 6.6406 l0 2.3438 l6.875 0 l0 -2.3438 c0.10414 -1.7709 0.39063 -3.2031 0.85938 -4.2969 c0.625 -1.5104 1.4844 -2.8645 2.5781 -4.0624 c1.3021 -1.1979 2.6563 -2.0833 4.0625 -2.6562 c1.6146 -0.625 3.3855 -0.9375 5.3126 -0.9375 l9.8438 0 l0 -5.9375 l-9.8438 0 z M27.891 18.984 l0.000076294 1.4843 l0.078125 0 c-0.10414 1.6666 -0.41664 3.2031 -0.9375 4.6094 c-0.67711 1.6146 -1.5365 2.9427 -2.5781 3.9844 c-1.1459 1.1459 -2.5 2.0313 -4.0625 2.6563 c-1.6146 0.625 -3.3855 0.9375 -5.3126 0.9375 l-9.8438 0 l0 5.9375 l9.8438 0 c2.8646 0 5.5209 -0.46875 7.9688 -1.4063 c2.3959 -0.9375 4.4792 -2.2396 6.2501 -3.9063 c1.8229 -1.8229 3.177 -3.802 4.0624 -5.9374 c0.9375 -2.0834 1.4063 -4.375 1.4063 -6.875 l0 -1.4844 l-6.875 0 z M63.281 7.5 l11.797 0 l0 -6.0938 l-30.156 0 l0 6.0938 l18.359 0 z M56.719 13.594000000000001 l6.5625 0 l0 25 l-6.5625 0 l0 -25 z M110.703 38.5937 l7.0313 0 l-13.594 -37.266 l-7.1094 0 l7.8906 22.266 z M81.9531 38.5937 l6.875 0 l8.125 -19.844 l-3.3594 -8.9063 z M127.0313 1.4059999999999988 l6.4063 0 l0 31.25 l19.531 0 l0 5.9375 l-25.938 0 l0 -37.188 z M184.922 1.4059999999999988 c-2.8646 0 -5.5209 0.4686 -7.9688 1.4061 c-2.3959 0.9375 -4.4792 2.2396 -6.2501 3.9063 c-1.7188 1.5625 -3.0729 3.5416 -4.0625 5.9375 c-0.83336 2.0313 -1.3021 4.2448 -1.4063 6.6406 l0 2.3438 l6.875 0 l0 -2.3438 c0.10414 -1.7709 0.39063 -3.2031 0.85938 -4.2969 c0.625 -1.5104 1.4844 -2.8645 2.5781 -4.0624 c1.3021 -1.1979 2.6563 -2.0833 4.0625 -2.6562 c1.6146 -0.625 3.3855 -0.9375 5.3126 -0.9375 l9.8438 0 l0 -5.9375 l-9.8438 0 z M187.891 18.984 l0.000076294 1.4843 l0.078125 0 c-0.10414 1.6666 -0.41664 3.2031 -0.9375 4.6094 c-0.67711 1.6146 -1.5365 2.9427 -2.5781 3.9844 c-1.1459 1.1459 -2.5 2.0313 -4.0625 2.6563 c-1.6146 0.625 -3.3855 0.9375 -5.3126 0.9375 l-9.8438 0 l0 5.9375 l9.8438 0 c2.8646 0 5.5209 -0.46875 7.9688 -1.4063 c2.3959 -0.9375 4.4792 -2.2396 6.2501 -3.9063 c1.8229 -1.8229 3.177 -3.802 4.0624 -5.9374 c0.9375 -2.0834 1.4063 -4.375 1.4063 -6.875 l0 -1.4844 l-6.875 0 z M206.0938 1.4059999999999988 l27.813 0 l0 5.9375 l-27.813 0 l0 -5.9375 z M206.0938 32.6562 l27.734 0 l0 5.9375 l-27.734 0 l0 -5.9375 z M206.0938 16.875 l25.078 0 l0 5.8594 l-25.078 0 l0 -5.8594 z M275.781 38.5937 l-10.078 -14.063 c1.3541 -0.41664 2.552 -0.91141 3.5937 -1.4843 c1.1459 -0.72914 2.0834 -1.5364 2.8125 -2.4218 c0.83336 -0.98961 1.4323 -2.0573 1.797 -3.2032 c0.46875 -1.25 0.70313 -2.6563 0.70313 -4.2188 c0 -1.8229 -0.3125 -3.4635 -0.9375 -4.9219 c-0.625 -1.4063 -1.5365 -2.6302 -2.7344 -3.6719 c-1.1459 -0.98961 -2.6042 -1.7709 -4.3751 -2.3438 c-1.8229 -0.57289 -3.75 -0.85938 -5.7813 -0.85938 l-16.563 0 l0 5.9375 l16.016 0 c2.4479 0 4.3489 0.52086 5.703 1.5625 s2.0313 2.6041 2.0313 4.6875 c0 1.9271 -0.67711 3.4375 -2.0313 4.5313 c-1.3541 1.1459 -3.2291 1.7188 -5.625 1.7188 l-16.094 0 l0 18.75 l6.4844 0 l0 -12.969 l8.2031 0 l9.1406 12.969 l7.7344 0 l0 0 z"></path>
</svg>