<svg xmlns="http://www.w3.org/2000/svg" width="20" height="20" fill="none"><path fill="#5B6871" d="M2.857 0A2.857 2.857 0 0 0 0 2.857v2.857a2.857 2.857 0 0 0 2.857 2.857h2.857a2.857 2.857 0 0 0 2.857-2.857V2.857A2.857 2.857 0 0 0 5.714 0H2.857Zm0 11.429A2.857 2.857 0 0 0 0 14.286v2.857A2.857 2.857 0 0 0 2.857 20h2.857a2.857 2.857 0 0 0 2.857-2.857v-2.857a2.857 2.857 0 0 0-2.857-2.857H2.857Zm8.572-8.572A2.857 2.857 0 0 1 14.286 0h2.857A2.857 2.857 0 0 1 20 2.857v2.857a2.857 2.857 0 0 1-2.857 2.857h-2.857a2.857 2.857 0 0 1-2.857-2.857V2.857Zm0 11.429a2.857 2.857 0 0 1 2.857-2.857h2.857A2.857 2.857 0 0 1 20 14.286v2.857A2.857 2.857 0 0 1 17.143 20h-2.857a2.857 2.857 0 0 1-2.857-2.857v-2.857Z"/></svg>