<svg xmlns="http://www.w3.org/2000/svg" width="270.547" height="37.266" viewBox="-92.868 -20.882 270.547 37.266"><path d="M-73.18-20.804c-2.865 0-5.521.469-7.97 1.406-2.395.938-4.478 2.24-6.25 3.907-1.718 1.562-3.072 3.541-4.062 5.937-.833 2.031-1.302 4.245-1.406 6.64v2.345h6.875v-2.344c.104-1.771.39-3.203.86-4.297a13.807 13.807 0 0 1 2.577-4.063c1.303-1.197 2.657-2.083 4.063-2.656 1.615-.625 3.385-.937 5.313-.937h9.843v-5.938h-9.843zm2.969 17.578v1.485h.078c-.104 1.666-.417 3.203-.938 4.609-.677 1.615-1.536 2.943-2.578 3.984A11.951 11.951 0 0 1-77.71 9.51c-1.615.625-3.386.937-5.313.937h-9.844v5.938h9.844c2.865 0 5.521-.469 7.969-1.407 2.396-.937 4.48-2.24 6.25-3.906 1.823-1.823 3.177-3.802 4.063-5.937.937-2.084 1.406-4.375 1.406-6.875v-1.485h-6.875zm35.39-11.484h11.797v-6.093H-53.18v6.093zm-6.562 6.094h6.562v25h-6.562zm53.984 25h7.031L6.038-20.882h-7.11L6.82 1.384Zm-28.75 0h6.875L-1.15-3.46l-3.36-8.906zm45.078-37.188h6.406v31.25h19.531v5.938H28.928v-37.188zm57.89 0c-2.864 0-5.52.469-7.968 1.406-2.396.938-4.48 2.24-6.25 3.907-1.719 1.562-3.073 3.541-4.063 5.937-.833 2.031-1.302 4.245-1.406 6.64v2.345h6.875v-2.344c.104-1.771.39-3.203.86-4.297a13.807 13.807 0 0 1 2.577-4.063c1.303-1.197 2.657-2.083 4.063-2.656 1.615-.625 3.385-.937 5.313-.937h9.843v-5.938H86.82zm2.97 17.578v1.485h.078c-.104 1.666-.417 3.203-.938 4.609-.677 1.615-1.536 2.943-2.578 3.984A11.951 11.951 0 0 1 82.29 9.51c-1.615.625-3.386.937-5.313.937h-9.844v5.938h9.844c2.865 0 5.521-.469 7.969-1.407 2.396-.937 4.48-2.24 6.25-3.906 1.823-1.823 3.177-3.802 4.062-5.937.938-2.084 1.407-4.375 1.407-6.875v-1.485h-6.875zm18.202-17.578h27.813v5.938h-27.813zm0 31.25h27.734v5.938h-27.734zm0-15.78h25.078V.524h-25.078zm69.688 21.718L167.6 2.321c1.354-.417 2.552-.911 3.593-1.484 1.146-.73 2.084-1.537 2.813-2.422.833-.99 1.432-2.057 1.797-3.203.469-1.25.703-2.657.703-4.22 0-1.822-.312-3.463-.937-4.921a10.442 10.442 0 0 0-2.735-3.672c-1.146-.99-2.604-1.77-4.375-2.344-1.823-.573-3.75-.86-5.781-.86h-16.563v5.938h16.016c2.448 0 4.349.521 5.703 1.563 1.354 1.042 2.031 2.604 2.031 4.687 0 1.928-.677 3.438-2.031 4.532-1.354 1.146-3.23 1.719-5.625 1.719h-16.094v18.75h6.484V3.414h8.203l9.14 12.97h7.735z"/></svg>