<svg xmlns="http://www.w3.org/2000/svg" width="16" height="16" fill="none"><rect width="16" height="16" fill="#468189" rx="3"/><path fill="#fff" fill-rule="evenodd" d="M11.875 6.05a.285.285 0 0 0-.025-.016l-3.714-2a.286.286 0 0 0-.271 0l-3.715 2a.283.283 0 0 0-.102.408L8 8.534l3.952-2.092a.283.283 0 0 0-.077-.393Zm.09 3.711a.285.285 0 0 0-.115-.116l-.568-.305-3.148 1.667a.286.286 0 0 1-.268 0L4.718 9.34l-.568.305a.286.286 0 0 0 0 .503l3.715 2a.286.286 0 0 0 .27 0l3.715-2a.286.286 0 0 0 .116-.387ZM11.85 7.84c.009.004.017.01.025.015.13.087.164.262.077.392L8 10.34 4.048 8.247a.284.284 0 0 1 .102-.407l.568-.306 3.148 1.667a.286.286 0 0 0 .268 0l3.148-1.667.568.306Z" clip-rule="evenodd"/></svg>