<svg xmlns="http://www.w3.org/2000/svg" width="16" height="16" fill="none"><rect width="16" height="16" fill="#DE350B" rx="3"/><path fill="#fff" d="m11.876 10.587-2.28-3.883V4.391C9.597 4.174 9.4 4 9.164 4H6.836c-.236 0-.43.174-.43.391v2.313l-2.281 3.883a.892.892 0 0 0 .022.945c.187.29.526.468.891.468h5.922c.366 0 .706-.179.893-.468a.893.893 0 0 0 .023-.945Zm-3.5-1.624c.204 0 .37.152.37.34 0 .188-.166.34-.37.34s-.37-.152-.37-.34c0-.187.166-.34.37-.34Zm-1.04-2.047c.205 0 .37.153.37.34 0 .189-.165.341-.37.341-.203 0-.369-.152-.369-.34 0-.188.166-.34.37-.34Zm0 1.189c.332 0 .6.247.6.551 0 .305-.268.552-.6.552-.33 0-.598-.247-.598-.552 0-.304.268-.551.599-.551Zm3.442 2.83a.434.434 0 0 1-.37.191H5.59a.434.434 0 0 1-.369-.191.365.365 0 0 1-.005-.39l.58-.96a.438.438 0 0 1 .414-.2c.77.067 1.634.673 2.406.646.414-.014.798-.153 1.164-.339a.447.447 0 0 1 .58.154l.423.698a.367.367 0 0 1-.005.39Z"/></svg>